<svg version="1.1" xmlns="http://www.w3.org/2000/svg" xmlns:xlink="http://www.w3.org/1999/xlink" width="125.48538" height="165.46071" viewBox="0,0,125.48538,165.46071"><g transform="translate(-167.13942,-72.8012)"><g data-paper-data="{&quot;isPaintingLayer&quot;:true}" fill-rule="nonzero" stroke-linejoin="miter" stroke-miterlimit="10" stroke-dasharray="" stroke-dashoffset="0" style="mix-blend-mode: normal"><g><g><path d="M248.46321,116.08277l9.34627,-30.86599l25.63195,7.7614l-9.34627,30.866z" fill="#ffd2af" stroke="none" stroke-width="0" stroke-linecap="butt"/><path d="M256.61835,81.46037l-11.59228,38.28341" fill="none" stroke="#ffd2af" stroke-width="11.5" stroke-linecap="round"/><path d="M286.83708,90.61065l-11.59228,38.28341" fill="none" stroke="#ffd2af" stroke-width="11.5" stroke-linecap="round"/><path d="M274.79438,128.96664l-28.67911,-8.68408" fill="none" stroke="#ffd2af" stroke-width="11.5" stroke-linecap="round"/><path d="M247.01085,78.5512l39.86396,12.07088" fill="none" stroke="#000000" stroke-width="11.5" stroke-linecap="round"/><path d="M250.55074,96.24177c0.61622,-2.03504 2.76549,-3.18524 4.80053,-2.56902c2.03505,0.61621 3.18524,2.76549 2.56902,4.80054c-0.61622,2.03504 -2.76549,3.18523 -4.80053,2.56902c-2.03504,-0.61621 -3.18524,-2.76549 -2.56902,-4.80053z" fill="#49c4d2" stroke="none" stroke-width="0" stroke-linecap="butt"/><path d="M245.30026,111.63055c0.57867,-1.91103 2.59696,-2.99113 4.50799,-2.41246c1.91103,0.57867 2.99113,2.59696 2.41247,4.50799c-0.57867,1.91103 -2.59696,2.99114 -4.50799,2.41247c-1.91103,-0.57867 -2.99114,-2.59696 -2.41247,-4.50799z" fill="#a00000" stroke="#000000" stroke-width="0" stroke-linecap="butt"/><path d="M240.75537,114.02267l2.09298,-6.91205l6.7443,2.04218l-2.09298,6.91205z" fill="#a00000" stroke="none" stroke-width="0" stroke-linecap="butt"/><path d="M286.83924,90.57555l-7.43838,24.56519" fill="none" stroke="#000000" stroke-width="11.5" stroke-linecap="round"/><path d="M271.84491,86.03524l-7.43838,24.56519" fill="none" stroke="#000000" stroke-width="11.5" stroke-linecap="round"/><path d="M264.61416,110.68153l14.67531,4.44371" fill="none" stroke="#000000" stroke-width="11.5" stroke-linecap="round"/><path d="M268.71112,108.65325l5.73174,-18.92902l7.55034,2.28626l-5.73174,18.92901z" fill="#000000" stroke="none" stroke-width="0" stroke-linecap="butt"/><path d="M260.15988,135.3933l1.97596,-6.52559" fill="none" stroke="#ffd2af" stroke-width="22.5" stroke-linecap="round"/></g><path d="M256.875,152.26191v66.5" fill="none" stroke="#005e23" stroke-width="39" stroke-linecap="round"/><g fill="none" stroke-linecap="round"><path d="M252.3649,150.98933l-61.94042,-28.74583" stroke="#009235" stroke-width="19"/><path d="M188.03651,121.45026l-15.64709,-7.26163" stroke="#ffd2af" stroke-width="10.5"/><path d="M180.65836,117.75053l6.80308,3.15724" stroke="#f7cbaa" stroke-width="5"/><path d="M248.51,143.17626l2.5521,6.97222l-7.13822,2.61285" stroke="#ffde00" stroke-width="0.5"/><path d="M253.15063,145.05431l2.5521,6.97222l-7.13823,2.61285" stroke="#ffde00" stroke-width="0.5"/><path d="M243.97461,141.07144l2.55209,6.97222l-7.13823,2.61286" stroke="#ffde00" stroke-width="0.5"/></g></g></g></g></svg>